<svg width="32" height="32" viewBox="0 0 32 32" fill="none" xmlns="http://www.w3.org/2000/svg">
<path d="M24.5822 20.6734C24.2763 21.3768 23.9143 22.0243 23.4949 22.6195C22.9231 23.431 22.455 23.9927 22.0942 24.3046C21.535 24.8166 20.9358 25.0788 20.2941 25.0937C19.8335 25.0937 19.278 24.9632 18.6313 24.6985C17.9826 24.4351 17.3863 24.3046 16.8412 24.3046C16.2695 24.3046 15.6563 24.4351 15.0004 24.6985C14.3435 24.9632 13.8143 25.1011 13.4097 25.1148C12.7944 25.1409 12.1811 24.8713 11.5689 24.3046C11.1782 23.9653 10.6895 23.3838 10.104 22.5598C9.47584 21.68 8.9594 20.6598 8.55481 19.4966C8.12151 18.2403 7.9043 17.0237 7.9043 15.8458C7.9043 14.4967 8.19716 13.333 8.78376 12.3579C9.24477 11.5746 9.85808 10.9567 10.6257 10.5032C11.3933 10.0496 12.2227 9.81844 13.1159 9.80365C13.6046 9.80365 14.2455 9.95414 15.042 10.2499C15.8362 10.5467 16.3461 10.6971 16.5697 10.6971C16.7368 10.6971 17.3033 10.5212 18.2637 10.1704C19.1719 9.84503 19.9383 9.71032 20.5663 9.76339C22.2678 9.90008 23.5461 10.5678 24.3962 11.7707C22.8744 12.6886 22.1217 13.9741 22.1367 15.6233C22.1504 16.9079 22.6185 17.9768 23.5386 18.8256C23.9555 19.2195 24.4211 19.524 24.9392 19.7402C24.8269 20.0645 24.7083 20.3752 24.5822 20.6734ZM20.6799 5.38713C20.6799 6.39397 20.3103 7.33405 19.5738 8.20418C18.685 9.2386 17.6099 9.83633 16.4441 9.74201C16.4292 9.62122 16.4206 9.4941 16.4206 9.36051C16.4206 8.39394 16.8433 7.35953 17.5939 6.51375C17.9687 6.08552 18.4453 5.72946 19.0233 5.44541C19.6 5.16561 20.1456 5.01087 20.6586 4.98438C20.6736 5.11897 20.6799 5.25358 20.6799 5.38712V5.38713Z" fill="#C6C6C6"/>
</svg>
