<svg xmlns="http://www.w3.org/2000/svg" width="176" height="129" viewBox="0 0 176 129" fill="none">
  <g clip-path="url(#clip0_739_2306)">
    <path d="M3.63317 55.5472C4.99089 53.3209 5.88864 50.89 7.49117 48.9391C9.83313 46.1517 12.4817 43.5007 15.6199 41.4005C34.8499 28.3115 57.0373 22.1989 81.4351 26.3929C106.293 30.7915 125.472 44.6513 136.674 66.9492C142.352 78.1323 145.202 89.8893 146.087 101.937C146.203 104.153 146.381 106.23 146.77 109.899C150.556 106.755 153.449 104.38 156.404 101.865C156.803 102.209 157.262 102.413 157.814 102.825C157.534 103.866 157.562 105.044 156.976 105.948C154.352 110.608 151.574 115.2 148.797 119.791C146.915 122.783 145.125 125.983 140.673 125.667C136.007 125.423 133.561 121.838 132.006 118.315C129.963 113.411 128.413 108.226 127.016 103.109C126.774 102.003 128.067 100.747 128.624 99.4959C130.003 100.11 131.875 100.443 132.548 101.408C134.504 104.443 135.815 107.69 137.432 111.073C137.771 110.724 138.201 110.582 138.109 110.375C139.753 74.4788 123.321 45.3591 86.9421 33.0049C85.1937 32.3936 83.3835 31.9213 81.4497 31.727C54.9623 28.1018 31.7635 33.5981 12.1576 49.1836C9.60297 51.2104 7.62948 53.9952 5.41117 56.5047C4.7979 56.2319 4.24645 55.82 3.63317 55.5472Z" fill="#00D1FF"/>
  </g>
  <defs>
    <clipPath id="clip0_739_2306">
      <rect width="160.624" height="69.7338" fill="white" transform="translate(28.3438) rotate(23.9822)"/>
    </clipPath>
  </defs>
</svg>