<svg width="20" height="20" viewBox="0 0 20 20" fill="none" xmlns="http://www.w3.org/2000/svg">
<path d="M1 7.55924C1 6.44664 1.61575 5.42541 2.59972 4.90609L8.59973 1.73942C9.47597 1.27696 10.524 1.27696 11.4003 1.73942L17.4003 4.90609C18.3842 5.42541 19 6.44664 19 7.55925V16.0004C19 17.6572 17.6569 19.0004 16 19.0004L4 19.0004C2.34315 19.0004 1 17.6572 1 16.0004L1 7.55924Z" fill="#707479"/>
<path d="M13 19.0004V14.0004C13 12.8958 12.1046 12.0004 11 12.0004L9 12.0004C7.89543 12.0004 7 12.8958 7 14.0004V19.0004M8.59973 1.73942L2.59972 4.90609C1.61575 5.42541 1 6.44664 1 7.55924L1 16.0004C1 17.6572 2.34315 19.0004 4 19.0004L16 19.0004C17.6569 19.0004 19 17.6572 19 16.0004V7.55925C19 6.44664 18.3842 5.42541 17.4003 4.90609L11.4003 1.73942C10.524 1.27696 9.47597 1.27696 8.59973 1.73942Z" stroke="#0D0D0E" stroke-width="1.5" stroke-linecap="round" stroke-linejoin="round"/>
</svg>
