<svg width="10" height="10" viewBox="0 0 10 10" fill="none" xmlns="http://www.w3.org/2000/svg">
<path d="M10 5C10 7.75781 7.75909 10 5.00196 10C2.24091 10 -9.80091e-08 7.75781 -2.18557e-07 5C-3.39105e-07 2.24219 2.24091 -9.79532e-08 4.99804 -2.18471e-07C7.75518 -3.3899e-07 10 2.24219 10 5ZM5.68244 0.785156C5.63551 0.929687 5.28745 2.10547 5.49863 3.44531C7.03168 2.88672 8.28314 2.66016 8.54126 2.61719C7.89597 1.65625 6.87133 0.972656 5.68244 0.785156ZM8.93625 3.33203C8.56081 3.39453 7.2546 3.64453 5.69808 4.24219C5.70199 4.25 5.70591 4.26172 5.70591 4.26953C6.54673 6.67969 8.21666 7.54297 8.37309 7.62109C8.93625 6.89844 9.27259 5.98828 9.27259 5C9.2765 4.41016 9.15526 3.84375 8.93625 3.33203ZM7.86077 8.17187C7.69652 8.07422 5.75675 6.90234 5.04106 4.69922C5.02151 4.64453 5.00587 4.58594 4.99022 4.53125C4.74775 4.63672 4.50528 4.75391 4.26672 4.87891C4.90418 7.01172 4.87681 9.08203 4.8729 9.26953C4.91592 9.26953 4.95894 9.27344 5.00196 9.27344C6.1009 9.26953 7.10207 8.85547 7.86077 8.17187ZM4.12984 9.17969C4.13375 8.98828 4.14157 7.23047 3.6097 5.23047C2.35041 5.9375 1.29449 6.70312 1.14196 6.8125C1.70512 8.01172 2.80798 8.90234 4.12984 9.17969ZM0.852561 6C1.00899 5.88281 2.06492 5.10547 3.35158 4.40625C2.7806 2.88672 1.92022 2.24609 1.81072 2.16797C1.14196 2.92187 0.735236 3.91406 0.735236 5C0.735236 5.34375 0.778256 5.67969 0.852561 6ZM2.30348 1.69531C2.42472 1.78516 3.34376 2.5 3.98905 4.07812C4.19241 3.98047 4.39969 3.88281 4.60696 3.79297C4.68127 3.76172 4.75557 3.73047 4.82597 3.69922C4.64607 2.27734 4.93547 0.867187 4.96285 0.726562C3.95776 0.738281 3.0309 1.09766 2.30348 1.69531Z" fill="black"/>
</svg>
