<svg width="10" height="10" viewBox="0 0 10 10" fill="none" xmlns="http://www.w3.org/2000/svg">
<path d="M3.03036 4.545C3.03036 3.70832 3.70847 3.02988 4.54518 3.02988C5.3819 3.02988 6.06036 3.70832 6.06036 4.545C6.06036 5.38168 5.3819 6.06012 4.54518 6.06012C3.70847 6.06012 3.03036 5.38168 3.03036 4.545ZM2.21129 4.545C2.21129 5.83396 3.25617 6.8788 4.54518 6.8788C5.8342 6.8788 6.87908 5.83396 6.87908 4.545C6.87908 3.25604 5.8342 2.2112 4.54518 2.2112C3.25617 2.2112 2.21129 3.25604 2.21129 4.545ZM6.42605 2.11866C6.42601 2.22653 6.45795 2.33199 6.51785 2.42171C6.57775 2.51142 6.6629 2.58136 6.76255 2.62268C6.86219 2.664 6.97186 2.67484 7.07767 2.65384C7.18348 2.63284 7.28068 2.58093 7.35699 2.50469C7.4333 2.42844 7.48528 2.33128 7.50637 2.2255C7.52746 2.11971 7.5167 2.01004 7.47546 1.91036C7.43422 1.81069 7.36434 1.72548 7.27467 1.66552C7.185 1.60555 7.07957 1.57352 6.97169 1.57348H6.97147C6.82688 1.57355 6.68822 1.631 6.58595 1.73322C6.48369 1.83544 6.42618 1.97407 6.42605 2.11866ZM2.70893 8.24452C2.26579 8.22434 2.02493 8.15053 1.86487 8.08817C1.65266 8.00556 1.50126 7.90717 1.34206 7.74821C1.18287 7.58924 1.08433 7.43798 1.00209 7.22579C0.939689 7.0658 0.865875 6.82488 0.845731 6.38176C0.823696 5.90268 0.819296 5.75877 0.819296 4.54504C0.819296 3.3313 0.82406 3.18779 0.845731 2.70831C0.865912 2.26519 0.940271 2.02474 1.00209 1.86429C1.0847 1.65209 1.18309 1.50069 1.34206 1.3415C1.50104 1.18232 1.6523 1.08378 1.86487 1.00154C2.02486 0.939142 2.26579 0.865332 2.70893 0.845188C3.18803 0.823154 3.33195 0.818754 4.54518 0.818754C5.75842 0.818754 5.90248 0.823518 6.38198 0.845188C6.82512 0.865368 7.06558 0.939724 7.22604 1.00154C7.43825 1.08378 7.58965 1.18254 7.74885 1.3415C7.90804 1.50047 8.00621 1.65209 8.08882 1.86429C8.15122 2.02427 8.22503 2.26519 8.24518 2.70831C8.26721 3.18779 8.27161 3.3313 8.27161 4.54504C8.27161 5.75877 8.26721 5.90228 8.24518 6.38176C8.225 6.82488 8.15082 7.06573 8.08882 7.22579C8.00621 7.43798 7.90782 7.58939 7.74885 7.74821C7.58987 7.90703 7.43825 8.00556 7.22604 8.08817C7.06605 8.15057 6.82512 8.22438 6.38198 8.24452C5.90288 8.26655 5.75896 8.27095 4.54518 8.27095C3.3314 8.27095 3.18788 8.26655 2.70893 8.24452ZM2.67129 0.0275245C2.18743 0.0495587 1.8568 0.126278 1.56805 0.238631C1.26901 0.354655 1.01587 0.510313 0.7629 0.762869C0.509933 1.01543 0.35467 1.26896 0.23864 1.56799C0.126283 1.85691 0.0495607 2.18735 0.0275256 2.67119C0.00512697 3.15579 0 3.31072 0 4.545C0 5.77928 0.00512697 5.93421 0.0275256 6.41881C0.0495607 6.90269 0.126283 7.23309 0.23864 7.52201C0.35467 7.82085 0.509969 8.07468 0.7629 8.32713C1.01583 8.57958 1.26901 8.73502 1.56805 8.85137C1.85734 8.96372 2.18743 9.04044 2.67129 9.06248C3.15617 9.08451 3.31086 9.09 4.54518 9.09C5.77951 9.09 5.93444 9.08487 6.41907 9.06248C6.90297 9.04044 7.23338 8.96372 7.52231 8.85137C7.82117 8.73502 8.0745 8.57969 8.32746 8.32713C8.58043 8.07457 8.73537 7.82085 8.85172 7.52201C8.96408 7.23309 9.04117 6.90266 9.06284 6.41881C9.08487 5.93384 9.09 5.77928 9.09 4.545C9.09 3.31072 9.08487 3.15579 9.06284 2.67119C9.0408 2.18731 8.96408 1.85672 8.85172 1.56799C8.73537 1.26915 8.58003 1.01583 8.32746 0.762869C8.0749 0.509913 7.82117 0.354655 7.52268 0.238631C7.23339 0.126278 6.90293 0.0491951 6.41943 0.0275245C5.93481 0.00549036 5.77987 0 4.54555 0C3.31122 0 3.15617 0.00512676 2.67129 0.0275245Z" fill="black"/>
</svg>
