<svg width="13" height="13" viewBox="0 0 13 13" fill="none" xmlns="http://www.w3.org/2000/svg">
<path fill-rule="evenodd" clip-rule="evenodd" d="M1.32653 3.8147e-05H12.772C12.8021 -0.000524521 12.832 0.00499821 12.8599 0.0162563C12.8878 0.0275154 12.9132 0.0442848 12.9344 0.0655689C12.9557 0.086854 12.9725 0.112217 12.9838 0.140133C12.995 0.168049 13.0005 0.197934 13 0.22803V11.6445C13.0005 11.6748 12.995 11.7048 12.9838 11.733C12.9726 11.7611 12.9559 11.7868 12.9347 11.8084C12.9135 11.83 12.8881 11.8471 12.8602 11.8589C12.8323 11.8706 12.8023 11.8766 12.772 11.8766H10.2433V4.66776L1.91517 13L0 11.0848L8.35297 2.73187H1.09853V0.244628C1.09853 0.184159 1.12255 0.126164 1.16531 0.0834064C1.20807 0.0406494 1.26606 0.0166359 1.32653 0.0166359V3.8147e-05Z" fill="#F4821E"/>
</svg>
