<svg width="38" height="38" viewBox="0 0 38 38" fill="none" xmlns="http://www.w3.org/2000/svg">
<path d="M20.239 26.6117V13.8844C20.239 12.0432 20.9705 10.2774 22.2724 8.97549C23.5743 7.67357 25.3401 6.94217 27.1812 6.94217C27.4881 6.94217 27.7824 7.06407 27.9994 7.28105C28.2164 7.49804 28.3383 7.79233 28.3383 8.0992C28.3383 8.40606 28.2164 8.70036 27.9994 8.91735C27.7824 9.13433 27.4881 9.25623 27.1812 9.25623C25.955 9.26005 24.78 9.74887 23.9129 10.616C23.0458 11.4831 22.5569 12.6581 22.5531 13.8844V15.0414H31.2309C31.8446 15.0414 32.4332 15.2852 32.8671 15.7192C33.3011 16.1531 33.5449 16.7417 33.5449 17.3555V26.6117C33.5449 27.2254 33.3011 27.814 32.8671 28.248C32.4332 28.682 31.8446 28.9258 31.2309 28.9258H22.5531C21.9394 28.9258 21.3508 28.682 20.9168 28.248C20.4829 27.814 20.239 27.2254 20.239 26.6117ZM5.77614 28.9258H14.4539C15.0676 28.9258 15.6562 28.682 16.0902 28.248C16.5241 27.814 16.768 27.2254 16.768 26.6117V17.3555C16.768 16.7417 16.5241 16.1531 16.0902 15.7192C15.6562 15.2852 15.0676 15.0414 14.4539 15.0414H5.77614V13.8844C5.77996 12.6581 6.26879 11.4831 7.1359 10.616C8.00302 9.74887 9.17799 9.26005 10.4043 9.25623C10.7111 9.25623 11.0054 9.13433 11.2224 8.91735C11.4394 8.70036 11.5613 8.40606 11.5613 8.0992C11.5613 7.79233 11.4394 7.49804 11.2224 7.28105C11.0054 7.06407 10.7111 6.94217 10.4043 6.94217C8.56309 6.94217 6.79731 7.67357 5.4954 8.97549C4.19348 10.2774 3.46208 12.0432 3.46208 13.8844V26.6117C3.46208 27.2254 3.70588 27.814 4.13985 28.248C4.57382 28.682 5.16241 28.9258 5.77614 28.9258Z" fill="#F2994A"/>
</svg>
