<svg width="38" height="38" viewBox="0 0 38 38" fill="none" xmlns="http://www.w3.org/2000/svg">
<path d="M5.77614 13.8844C5.77996 12.6581 6.26879 11.4831 7.1359 10.616C8.00302 9.74887 9.17799 9.26005 10.4043 9.25623C10.7111 9.25623 11.0054 9.13433 11.2224 8.91735C11.4394 8.70036 11.5613 8.40606 11.5613 8.0992C11.5613 7.79233 11.4394 7.49804 11.2224 7.28105C11.0054 7.06407 10.7111 6.94217 10.4043 6.94217C8.56309 6.94217 6.79731 7.67357 5.4954 8.97549C4.19348 10.2774 3.46208 12.0432 3.46208 13.8844V26.6117C3.46208 27.2254 3.70588 27.814 4.13985 28.248C4.57382 28.682 5.16241 28.9258 5.77614 28.9258H14.4539C15.0676 28.9258 15.6562 28.682 16.0902 28.248C16.5241 27.814 16.768 27.2254 16.768 26.6117V17.3555C16.768 16.7417 16.5241 16.1531 16.0902 15.7192C15.6562 15.2852 15.0676 15.0414 14.4539 15.0414L5.77614 13.8844ZM5.77614 13.8844V14.5414V13.8844ZM27.1812 8.75623L27.1797 8.75623C25.8213 8.76046 24.5198 9.30193 23.5593 10.2624C22.5988 11.2229 22.0573 12.5245 22.0531 13.8828V13.8844V15.0414V15.5414H22.5531H31.2309C31.712 15.5414 32.1734 15.7325 32.5136 16.0727C32.8538 16.4129 33.0449 16.8743 33.0449 17.3555V26.6117C33.0449 27.0928 32.8538 27.5543 32.5136 27.8945C32.1734 28.2347 31.712 28.4258 31.2309 28.4258H22.5531C22.072 28.4258 21.6106 28.2347 21.2704 27.8945C20.9302 27.5543 20.739 27.0928 20.739 26.6117V13.8844C20.739 12.1758 21.4178 10.5372 22.6259 9.32904C23.8341 8.12089 25.4727 7.44217 27.1812 7.44217C27.3555 7.44217 27.5226 7.51139 27.6458 7.63461C27.7691 7.75782 27.8383 7.92494 27.8383 8.0992C27.8383 8.27345 27.7691 8.44057 27.6458 8.56379C27.5226 8.68701 27.3555 8.75623 27.1812 8.75623ZM5.27614 15.0414V15.5414H5.77614H14.4539C14.935 15.5414 15.3964 15.7325 15.7366 16.0727C16.0768 16.4129 16.268 16.8743 16.268 17.3555V26.6117C16.268 27.0928 16.0768 27.5543 15.7366 27.8945C15.3964 28.2347 14.935 28.4258 14.4539 28.4258H5.77614C5.29502 28.4258 4.83361 28.2347 4.4934 27.8945C4.1532 27.5543 3.96208 27.0928 3.96208 26.6117V13.8844C3.96208 12.1758 4.64081 10.5372 5.84895 9.32904C7.0571 8.12089 8.6957 7.44217 10.4043 7.44217C10.5785 7.44217 10.7456 7.51139 10.8689 7.63461C10.9921 7.75782 11.0613 7.92494 11.0613 8.0992C11.0613 8.27346 10.9921 8.44057 10.8689 8.56379C10.7456 8.68701 10.5785 8.75623 10.4043 8.75623L10.4027 8.75623C9.04437 8.76046 7.74286 9.30193 6.78235 10.2624C5.82185 11.2229 5.28037 12.5245 5.27614 13.8828V13.8844V15.0414Z" stroke="#F2994A"/>
</svg>
