<svg width="current" height="current" viewBox="0 0 659 121" fill="none" xmlns="http://www.w3.org/2000/svg">
<path d="M157.048 87.8361C172.907 87.8361 184.423 79.1964 184.423 67.1369C184.423 60.3871 178.564 55.5273 170.887 53.9524L170.938 53.5924C180.988 51.9274 188.11 45.4476 188.11 36.7179C188.11 28.9782 180.887 22.9033 166.443 22.9033H132.654L117.148 87.8361H157.048ZM150.685 34.738H158.968C164.17 34.738 166.796 36.9879 166.796 40.1827C166.796 44.6376 162.756 47.9224 156.644 47.9224H147.553L150.685 34.738ZM141.189 74.7415L144.725 59.7571H154.119C160.028 59.7571 163.109 62.187 163.109 65.9218C163.109 71.2767 158.715 74.7415 151.594 74.7415H141.189ZM186.342 87.8361H206.343L221.848 22.9033H201.848L186.342 87.8361ZM239.374 57.1472C240.687 52.4223 245.081 49.2275 250.283 49.2275C255.081 49.2275 258.415 51.9274 258.415 55.7072C258.415 56.2022 258.364 56.9221 258.263 57.1472H239.374ZM245.939 89.0512C260.788 89.0512 271.395 82.0763 274.273 71.6367H255.687C254.728 74.5166 251.344 76.4965 246.95 76.4965C240.939 76.4965 237.404 72.8967 237.404 68.3068C237.404 67.8568 237.454 67.3618 237.555 66.8669H275.536C276.243 64.347 276.546 61.0171 276.546 58.3172C276.546 45.3576 266.142 36.8979 251.192 36.8979C232.202 36.8979 219.575 49.3175 219.575 66.3269C219.575 80.6364 229.979 89.0512 245.939 89.0512ZM345.942 38.1579H325.841L319.073 66.5069C317.86 71.6367 314.376 74.6066 309.627 74.6066C304.881 74.6066 302.152 72.1767 302.152 67.9468C302.152 67.0018 302.254 66.1469 302.406 65.292L308.921 38.1579H288.921L281.748 68.2168C281.294 70.0617 281.042 72.3567 281.042 74.4717C281.042 83.3812 287.86 89.0961 298.516 89.0961C306.295 89.0961 312.81 85.6313 316.144 79.7364H316.548L314.628 87.8361H334.072L345.942 38.1579Z" fill="#5F656F"/>
<path d="M399.028 50.8925H399.432L401.754 87.8361H421.755L455.999 22.9033H433.978L416.3 63.357H415.896L414.18 22.9033H397.613L377.107 63.357H376.703L377.915 22.9033H355.895L359.229 87.8361H379.481L399.028 50.8925ZM468.07 76.4965C464.332 76.4965 461.756 74.8766 461.756 72.4467C461.756 69.6118 464.786 67.6768 469.332 67.5868L477.968 67.4068L477.211 70.6017C476.403 73.9766 472.463 76.4965 468.07 76.4965ZM458.725 88.5561C465.746 88.5561 471.453 85.9011 474.181 81.9863H474.585L473.171 87.8361H492.615L500.19 56.0672C500.444 55.0773 500.646 53.3223 500.646 52.0623C500.646 43.0177 490.595 36.8979 475.797 36.8979C461.554 36.8979 451.048 43.2426 448.826 53.6373H466.858C467.867 51.0274 470.645 49.6775 474.383 49.6775C478.424 49.6775 481.15 51.2074 481.15 53.5023C481.15 53.8173 481.1 54.1324 480.948 54.8973L480.292 57.7772L468.12 58.0021C452.26 58.3172 442.513 64.7969 442.513 75.1015C442.513 82.8412 449.484 88.5561 458.725 88.5561ZM529.182 88.5561C532.314 88.5561 535.849 88.2861 537.363 87.9261L540.395 75.6866C539.839 75.8665 538.879 75.9565 536.759 75.9565C532.162 75.9565 530.294 74.9215 530.294 72.3567C530.294 71.8167 530.394 70.8267 530.546 70.3767L534.788 52.6924H545.648L548.778 39.6427H537.869L540.697 27.8082H520.697L517.868 39.6427H509.585L506.353 52.6924H514.686L510.192 71.9067C509.687 74.1566 509.585 76.1365 509.585 77.3965C509.585 84.7762 516.757 88.5561 529.182 88.5561ZM569.083 57.1472C570.395 52.4223 574.789 49.2275 579.992 49.2275C584.789 49.2275 588.123 51.9274 588.123 55.7072C588.123 56.2022 588.073 56.9221 587.971 57.1472H569.083ZM575.648 89.0512C590.497 89.0512 601.103 82.0763 603.981 71.6367H585.395C584.437 74.5166 581.052 76.4965 576.658 76.4965C570.647 76.4965 567.113 72.8967 567.113 68.3068C567.113 67.8568 567.163 67.3618 567.263 66.8669H605.244C605.951 64.3469 606.255 61.0171 606.255 58.3172C606.255 45.3576 595.85 36.8979 580.9 36.8979C561.91 36.8979 549.284 49.3175 549.284 66.3269C549.284 80.6364 559.688 89.0512 575.648 89.0512ZM607.063 87.8361H627.114L633.275 62.457C634.943 55.6173 639.74 52.3324 646.356 52.3324C649.741 52.3324 652.165 53.0973 654.741 54.1773L658.528 38.7428C656.306 37.8428 654.033 37.4379 650.851 37.4379C644.84 37.4379 639.892 40.7227 637.367 45.3576H636.963L638.579 38.1579H619.033L607.063 87.8361Z" fill="#5F656F"/>
<g filter="url(#filter0_d_1_2174)">
<path fill-rule="evenodd" clip-rule="evenodd" d="M27.2187 13C27.0724 13.8112 26.9961 14.6467 26.9961 15.5V43.6674H26.9948V64.7513C26.9948 78.5124 38.1504 89.668 51.9115 89.668H53.8278C66.5305 89.668 76.8281 79.3704 76.8281 66.6677C76.8281 53.965 66.5306 43.6674 53.8278 43.6674H44.2941V13H88.3333C90.3667 13 92.3167 13.8077 93.7545 15.2455C95.1923 16.6833 96 18.6334 96 20.6668V48.7942C96 91.6322 59.6792 105.864 52.3958 108.26C50.8396 108.771 49.1604 108.771 47.6042 108.26C40.3208 105.864 4 91.6322 4 48.7942V20.6668C4 18.6334 4.80774 16.6833 6.24551 15.2455C7.68329 13.8077 9.63334 13 11.6667 13H27.2187ZM44.2969 66.3689C44.2969 61.5921 48.1692 57.7197 52.9459 57.7197C57.7226 57.7197 61.5949 61.5921 61.5949 66.3689C61.5949 71.1456 57.7226 75.018 52.9459 75.018C48.1692 75.018 44.2969 71.1456 44.2969 66.3689Z" fill="url(#paint0_linear_1_2174)"/>
</g>
<defs>
<filter id="filter0_d_1_2174" x="0" y="13" width="100" height="107.644" filterUnits="userSpaceOnUse" color-interpolation-filters="sRGB">
<feFlood flood-opacity="0" result="BackgroundImageFix"/>
<feColorMatrix in="SourceAlpha" type="matrix" values="0 0 0 0 0 0 0 0 0 0 0 0 0 0 0 0 0 0 127 0" result="hardAlpha"/>
<feOffset dy="8"/>
<feGaussianBlur stdDeviation="2"/>
<feComposite in2="hardAlpha" operator="out"/>
<feColorMatrix type="matrix" values="0 0 0 0 0 0 0 0 0 0 0 0 0 0 0 0 0 0 0.25 0"/>
<feBlend mode="normal" in2="BackgroundImageFix" result="effect1_dropShadow_1_2174"/>
<feBlend mode="normal" in="SourceGraphic" in2="effect1_dropShadow_1_2174" result="shape"/>
</filter>
<linearGradient id="paint0_linear_1_2174" x1="50" y1="13" x2="50" y2="108.643" gradientUnits="userSpaceOnUse">
<stop stop-color="#00A3FF"/>
<stop offset="1" stop-color="#4A3AFF"/>
</linearGradient>
</defs>
</svg>
